<?xml version="1.0" encoding="UTF-8"?>
<!DOCTYPE svg PUBLIC "-//W3C//DTD SVG 1.0//EN" "http://www.w3.org/TR/2001/REC-SVG-20010904/DTD/svg10.dtd"><svg contentScriptType="text/ecmascript" width="400" xmlns:xlink="http://www.w3.org/1999/xlink" zoomAndPan="magnify" contentStyleType="text/css" height="450" preserveAspectRatio="xMidYMid meet" xmlns="http://www.w3.org/2000/svg" version="1.0"><text x="20" y="70" style="font-size:14px;fill:black;font-family:Arial" text-anchor="middle">100.0</text><text x="20" y="380" style="font-size:14px;fill:black;font-family:Arial" text-anchor="middle">-100.0</text><text x="20" y="142" style="font-size:14px;fill:black;font-family:Arial" text-anchor="middle">50.0</text><text x="20" y="308" style="font-size:14px;fill:black;font-family:Arial" text-anchor="middle">-50.0</text><text x="71.5" y="231" style="font-size:14px;fill:black;font-family:Arial" text-anchor="middle">-4</text><path style="fill:none;fill-rule:evenodd;stroke:#000000;stroke-width:1px;stroke-linecap:butt;stroke-linejoin:miter;stroke-opacity:1" d="M  92.0,216 L 92.0,235"/><text x="114.5" y="231" style="font-size:14px;fill:black;font-family:Arial" text-anchor="middle">-3</text><path style="fill:none;fill-rule:evenodd;stroke:#000000;stroke-width:1px;stroke-linecap:butt;stroke-linejoin:miter;stroke-opacity:1" d="M  135.0,216 L 135.0,235"/><text x="157.5" y="231" style="font-size:14px;fill:black;font-family:Arial" text-anchor="middle">-2</text><path style="fill:none;fill-rule:evenodd;stroke:#000000;stroke-width:1px;stroke-linecap:butt;stroke-linejoin:miter;stroke-opacity:1" d="M  178.0,216 L 178.0,235"/><text x="200.5" y="231" style="font-size:14px;fill:black;font-family:Arial" text-anchor="middle">-1</text><path style="fill:none;fill-rule:evenodd;stroke:#000000;stroke-width:1px;stroke-linecap:butt;stroke-linejoin:miter;stroke-opacity:1" d="M  221.0,216 L 221.0,235"/><text x="243.5" y="231" style="font-size:14px;fill:black;font-family:Arial" text-anchor="middle">0</text><path style="fill:none;fill-rule:evenodd;stroke:#000000;stroke-width:1px;stroke-linecap:butt;stroke-linejoin:miter;stroke-opacity:1" d="M  264.0,216 L 264.0,235"/><text x="286.5" y="231" style="font-size:14px;fill:black;font-family:Arial" text-anchor="middle">1</text><path style="fill:none;fill-rule:evenodd;stroke:#000000;stroke-width:1px;stroke-linecap:butt;stroke-linejoin:miter;stroke-opacity:1" d="M  307.0,216 L 307.0,235"/><text x="329.5" y="231" style="font-size:14px;fill:black;font-family:Arial" text-anchor="middle">2</text><path style="fill:none;fill-rule:evenodd;stroke:#000000;stroke-width:1px;stroke-linecap:butt;stroke-linejoin:miter;stroke-opacity:1" d="M  350.0,216 L 350.0,235"/><text x="372.5" y="231" style="font-size:14px;fill:black;font-family:Arial" text-anchor="middle">3</text><path style="fill:none;fill-rule:evenodd;stroke:#000000;stroke-width:1px;stroke-linecap:butt;stroke-linejoin:miter;stroke-opacity:1" d="M  393.0,216 L 393.0,235"/><rect width="1" x="49" height="350" y="50" style="fill:black"/><rect width="344.0" x="49" height="1" y="216" style="fill:black"/><rect width="344.0" x="49" height="1" y="235" style="fill:black"/><path style="fill:none;fill-rule:evenodd;stroke:#000000;stroke-width:1px;stroke-linecap:butt;stroke-linejoin:miter;stroke-opacity:1" d="M  44.5,54 L 49.5,50 L 54.5,54"/><path style="fill:none;fill-rule:evenodd;stroke:#000000;stroke-width:1px;stroke-linecap:butt;stroke-linejoin:miter;stroke-opacity:1" d="M 44.5,396 L 49.5,400 L 54.5,396"/><path style="fill:none;fill-rule:evenodd;stroke:#000000;stroke-width:1px;stroke-linecap:butt;stroke-linejoin:miter;stroke-opacity:1" d="M  49,70 L 44,70 L 44,70"/><path style="fill:none;fill-rule:evenodd;stroke:#000000;stroke-width:1px;stroke-linecap:butt;stroke-linejoin:miter;stroke-opacity:1" d="M  49,142 L 44,142"/><path style="fill:none;fill-rule:evenodd;stroke:#000000;stroke-width:1px;stroke-linecap:butt;stroke-linejoin:miter;stroke-opacity:1" d="M  49,380 L 44,380"/><path style="fill:none;fill-rule:evenodd;stroke:#000000;stroke-width:1px;stroke-linecap:butt;stroke-linejoin:miter;stroke-opacity:1" d="M  49,308 L 44,308"/><text x="-225" y="15" style="font-size:14px;fill:black;font-family:Arial" transform="matrix(0,-1,1,0,0,0)" text-anchor="middle">P value = 0.05</text><text x="-225" y="35" style="font-size:14px;fill:black;font-family:Arial" transform="matrix(0,-1,1,0,0,0)" text-anchor="middle">% difference</text><text x="56.62661988372092" y="212.0" style="font-size:31px;;fill:black;font-family:Arial" transform="scale(1.262657035627777,1.0)" text-anchor="middle">I</text><text x="95.58350825581395" y="212.0" style="font-size:33px;;fill:black;font-family:Arial" transform="scale(1.1979053927750705,1.0)" text-anchor="middle">F</text><text x="100.48522662790697" y="184.0" style="font-size:35px;;fill:blue;font-family:Arial" transform="scale(1.1394709833714085,1.0)" text-anchor="middle">C</text><text x="124.73695988372091" y="212.0" style="font-size:31px;;fill:black;font-family:Arial" transform="scale(1.262657035627777,1.0)" text-anchor="middle">I</text><text x="138.22203662790696" y="185.0" style="font-size:35px;;fill:blue;font-family:Arial" transform="scale(1.1394709833714085,1.0)" text-anchor="middle">H</text><text x="175.95884662790698" y="212.0" style="font-size:35px;;fill:black;font-family:Arial" transform="scale(1.1394709833714085,1.0)" text-anchor="middle">M</text><text x="192.8472998837209" y="212.0" style="font-size:31px;;fill:black;font-family:Arial" transform="scale(1.262657035627777,1.0)" text-anchor="middle">I</text><text x="213.69565662790697" y="185.0" style="font-size:35px;;fill:black;font-family:Arial" transform="scale(1.1394709833714085,1.0)" text-anchor="middle">M</text><text x="226.9024698837209" y="212.0" style="font-size:31px;;fill:black;font-family:Arial" transform="scale(1.262657035627777,1.0)" text-anchor="middle">I</text><text x="251.43246662790696" y="185.0" style="font-size:35px;;fill:black;font-family:Arial" transform="scale(1.1394709833714085,1.0)" text-anchor="middle">M</text><text x="502.8649332558139" y="155.0" style="font-size:76px;;fill:black;font-family:Arial" transform="scale(0.5697354916857043,1.0)" text-anchor="middle">V</text><text x="289.169276627907" y="212.0" style="font-size:35px;;fill:blue;font-family:Arial" transform="scale(1.1394709833714085,1.0)" text-anchor="middle">H</text><text x="289.169276627907" y="182.0" style="font-size:35px;;fill:blue;font-family:Arial" transform="scale(1.1394709833714085,1.0)" text-anchor="middle">C</text><text x="685.7054499999999" y="212.0" style="font-size:80px;;fill:purple;font-family:Arial" transform="scale(0.5432361664910204,1.0)" text-anchor="middle">N</text></svg>